<?xml version="1.0" standalone="no"?>
<!DOCTYPE svg PUBLIC "-//W3C//DTD SVG 20010904//EN"
 "http://www.w3.org/TR/2001/REC-SVG-20010904/DTD/svg10.dtd">
<svg version="1.0" xmlns="http://www.w3.org/2000/svg"
 width="500.000000pt" height="500.000000pt" viewBox="0 0 500.000000 500.000000"
 preserveAspectRatio="xMidYMid meet">

<g transform="translate(0.000000,500.000000) scale(0.100000,-0.100000)"
fill="#000000" stroke="none">
<path d="M911 4989 c-62 -12 -116 -51 -156 -112 -19 -29 -48 -65 -64 -81 -17
-16 -33 -36 -36 -45 -4 -9 -25 -30 -48 -46 -49 -36 -83 -83 -97 -136 -7 -24
-9 -710 -8 -2026 l3 -1988 21 -40 c32 -58 68 -93 122 -118 l47 -22 1276 0
1275 0 60 30 c44 23 67 43 89 77 17 26 40 51 51 57 12 5 37 28 55 51 19 23 55
66 81 96 60 68 78 126 78 258 l0 101 338 -338 337 -337 88 88 c48 48 87 92 87
97 0 6 -192 202 -426 436 l-426 426 51 66 c64 86 144 248 175 358 93 328 25
700 -176 967 l-48 63 0 261 c0 244 1 260 18 253 19 -7 112 -31 155 -40 18 -4
27 -12 27 -25 0 -26 12 -25 28 0 10 16 23 20 65 20 209 2 424 129 542 320 81
133 114 325 81 480 -19 90 -79 216 -136 285 -170 205 -455 293 -700 216 -36
-12 -68 -21 -71 -21 -4 0 -8 44 -11 98 -4 84 -9 106 -34 151 -31 58 -86 102
-149 120 -49 13 -2496 14 -2564 0z m2616 -85 c61 -49 73 -82 73 -210 0 -86 -3
-113 -14 -117 -10 -4 -15 11 -20 60 -8 77 -31 126 -82 176 -74 71 12 67 -1392
67 -1175 0 -1263 1 -1251 17 37 43 6 42 1361 40 l1286 -2 39 -31z m-162 -85
c98 -27 144 -97 145 -219 0 -75 -1 -76 -38 -113 l-38 -37 -75 15 c-104 23
-231 29 -318 17 l-75 -11 -60 66 c-34 36 -66 80 -72 97 -6 18 -17 30 -26 29
-7 -2 -34 17 -58 42 l-44 45 -995 0 -994 0 23 25 c52 55 13 54 1350 54 864 1
1247 -2 1275 -10z m-695 -229 l0 -111 -67 -122 c-67 -121 -68 -123 -68 -197 1
-41 6 -87 13 -102 11 -27 14 -28 86 -28 67 0 75 -2 89 -24 9 -13 40 -35 68
-50 52 -26 56 -26 266 -26 l213 0 0 -24 c0 -43 48 -179 85 -240 l35 -58 0
-249 c0 -137 -2 -249 -5 -249 -3 0 -36 15 -73 34 -167 83 -309 116 -507 116
-183 0 -326 -30 -475 -99 -39 -18 -64 -21 -202 -21 l-158 0 0 -25 c0 -24 0
-24 112 -27 l112 -3 -41 -27 c-22 -14 -67 -51 -100 -82 -34 -31 -66 -56 -72
-56 -6 0 -11 -5 -11 -10 0 -6 -22 -38 -49 -73 -26 -34 -61 -82 -77 -107 l-29
-45 -5 275 -5 275 -515 0 -515 0 -3 -427 -2 -428 466 0 467 0 -6 -37 c-3 -21
-9 -62 -13 -90 l-7 -53 -423 0 -424 0 0 -25 0 -25 425 0 425 0 0 -24 c0 -12 3
-51 6 -85 l7 -61 -432 0 -431 0 0 -25 0 -25 435 0 434 0 11 -42 c6 -24 18 -63
25 -87 8 -25 15 -46 15 -48 0 -2 -207 -3 -460 -3 l-460 0 0 -25 0 -25 469 0
469 0 46 -84 c25 -46 46 -87 46 -90 0 -3 -232 -6 -515 -6 l-515 0 0 -25 0 -25
536 0 535 0 79 -84 c156 -164 306 -257 522 -320 l83 -25 -182 0 -183 -1 0 -25
0 -25 475 0 475 0 0 25 c0 24 -2 25 -77 26 l-78 0 87 24 c47 13 130 44 184 70
53 25 99 45 100 45 10 0 3 -579 -7 -613 -12 -44 -59 -101 -103 -125 -29 -16
-126 -17 -1271 -20 -877 -2 -1255 1 -1293 9 -58 12 -112 51 -140 103 -16 29
-17 168 -17 2026 l0 1995 22 42 c24 44 66 80 111 93 15 5 467 9 1005 9 l977 1
0 -110z m80 9 c-19 -35 -30 -31 -30 12 0 41 0 42 20 24 15 -13 17 -22 10 -36z
m116 -99 c14 -16 26 -32 27 -36 1 -4 -26 -15 -60 -25 -35 -9 -63 -13 -63 -9 0
15 54 100 63 100 5 0 19 -13 33 -30z m1192 -199 c50 -25 69 -52 78 -108 11
-70 -28 -135 -136 -230 -72 -63 -90 -83 -90 -105 0 -18 -5 -28 -15 -28 -12 0
-15 19 -15 108 l0 108 45 44 c25 25 51 61 57 81 13 47 3 106 -22 119 -29 15
-81 12 -102 -7 -24 -22 -23 -59 2 -66 15 -4 20 -14 20 -41 0 -57 -35 -83 -105
-77 -30 3 -65 47 -65 82 0 61 47 116 120 138 55 17 180 7 228 -18z m-890 -122
c38 -41 70 -68 78 -65 11 4 14 -10 14 -64 l0 -70 -30 0 c-29 0 -30 1 -24 43
12 87 -24 119 -198 176 -99 33 -88 47 36 50 l58 1 66 -71z m120 62 c11 -7 11
-16 1 -50 -7 -22 -15 -41 -18 -41 -3 0 -25 23 -49 50 l-43 50 48 0 c26 0 54
-4 61 -9z m-310 -241 l67 -18 -85 -1 c-93 -1 -151 11 -171 35 -12 14 -7 15 54
9 37 -4 98 -15 135 -25z m964 -217 c23 -20 24 -80 1 -105 -20 -23 -80 -24
-105 -1 -23 20 -24 80 -1 105 20 23 80 24 105 1z m-432 -530 l0 -236 -32 25
-33 26 -3 236 -2 237 35 -27 35 -26 0 -235z m90 163 c3 -105 4 -247 2 -351 -2
-117 -3 -128 -18 -114 -12 12 -16 49 -20 170 -7 195 2 320 22 312 8 -3 14 -10
14 -17z m-1840 -538 c0 -294 -1 -316 -22 -380 l-22 -68 -448 0 -448 0 0 380 0
380 470 0 470 0 0 -312z m1238 256 c365 -75 654 -336 765 -689 91 -292 42
-616 -133 -869 -56 -81 -157 -184 -240 -247 -76 -56 -239 -134 -335 -160 -122
-32 -330 -37 -457 -10 -311 65 -588 288 -719 577 -59 130 -81 240 -81 409 0
130 3 164 26 250 97 374 395 658 776 740 91 19 303 19 398 -1z m489 -1926 c23
-21 23 -23 23 -262 0 -211 -3 -246 -19 -281 -10 -22 -25 -46 -34 -54 -16 -12
-17 9 -17 296 0 170 3 313 7 316 10 11 15 9 40 -15z m118 -255 c-1 -110 -4
-145 -18 -170 -10 -18 -20 -33 -22 -33 -3 0 -5 86 -4 191 l1 190 22 -20 c20
-19 21 -29 21 -158z"/>
<path d="M1100 4210 l0 -350 65 0 64 0 3 158 3 157 68 3 67 3 0 64 0 64 -67 3
-68 3 0 55 0 55 68 3 67 3 0 64 0 65 -135 0 -135 0 0 -350z"/>
<path d="M2240 4495 c0 -58 -2 -65 -20 -65 -17 0 -20 -7 -20 -50 0 -43 3 -50
20 -50 19 0 20 -7 20 -205 0 -216 6 -251 45 -261 11 -3 46 -4 76 -2 l54 3 3
48 c3 42 1 47 -17 47 -29 0 -32 22 -29 205 3 157 3 160 26 163 19 3 22 9 22
52 0 43 -3 49 -22 52 -21 3 -23 9 -26 66 l-3 62 -64 0 -65 0 0 -65z"/>
<path d="M1500 4447 c-46 -16 -80 -68 -80 -123 l0 -44 65 0 c61 0 65 1 65 23
0 13 7 32 15 43 15 19 15 19 36 -5 14 -17 19 -35 17 -60 -3 -33 -7 -37 -53
-53 -124 -44 -154 -82 -155 -193 0 -125 32 -175 111 -175 42 0 51 4 73 33 l26
32 0 -32 0 -33 71 0 71 0 -4 248 c-3 216 -5 251 -21 280 -34 62 -147 90 -237
59z m118 -376 c-4 -97 -16 -123 -46 -105 -13 9 -18 28 -20 88 -3 72 -1 78 24
101 18 16 31 22 37 16 5 -5 8 -50 5 -100z"/>
<path d="M1901 4442 c-75 -38 -91 -88 -90 -292 0 -236 27 -282 167 -288 64 -2
83 1 110 17 53 34 72 75 72 159 l0 72 -70 0 -70 0 0 -63 c0 -79 -20 -106 -54
-71 -13 13 -16 44 -16 182 0 92 4 173 9 180 4 8 19 12 32 10 22 -3 24 -8 27
-65 l3 -63 69 0 70 0 0 68 c0 84 -23 125 -83 152 -53 24 -131 25 -176 2z"/>
<path d="M750 3705 l0 -25 1215 0 1215 0 0 25 0 25 -1215 0 -1215 0 0 -25z"/>
<path d="M750 3405 l0 -25 1215 0 1215 0 0 25 0 25 -1215 0 -1215 0 0 -25z"/>
<path d="M770 1055 l0 -305 410 0 410 0 0 305 0 305 -410 0 -410 0 0 -305z
m770 0 l0 -255 -360 0 -360 0 0 255 0 255 360 0 360 0 0 -255z"/>
<path d="M1645 1348 c-3 -7 -4 -144 -3 -303 l3 -290 155 0 155 0 0 300 0 300
-153 3 c-117 2 -154 0 -157 -10z m265 -293 l0 -255 -110 0 -110 0 0 255 0 255
110 0 110 0 0 -255z"/>
<path d="M2220 815 l0 -25 475 0 475 0 0 25 0 25 -475 0 -475 0 0 -25z"/>
<path d="M2823 2028 c-510 -428 -609 -515 -598 -527 11 -11 113 70 617 494
331 280 605 509 606 511 2 1 0 10 -5 19 -8 14 -112 -69 -620 -497z"/>
<path d="M3276 2151 c-7 -10 111 -151 125 -151 16 0 9 14 -47 87 -55 72 -67
82 -78 64z"/>
<path d="M3198 2003 c-34 -21 -52 -64 -43 -100 9 -37 77 -103 106 -103 34 0
88 36 99 66 14 35 13 44 -5 44 -9 0 -15 -9 -15 -23 0 -51 -78 -77 -114 -38
-16 18 -14 21 44 67 l61 49 -31 28 c-35 31 -63 34 -102 10z m72 -21 l23 -18
-44 -37 c-24 -21 -48 -36 -53 -34 -6 2 -11 21 -11 43 0 31 5 41 25 51 32 16
34 16 60 -5z"/>
<path d="M3434 1959 c-10 -17 13 -36 27 -22 12 12 4 33 -11 33 -5 0 -12 -5
-16 -11z"/>
<path d="M3016 1850 c-39 -35 -46 -68 -20 -94 20 -20 47 -20 85 0 39 20 83 15
87 -9 5 -27 -36 -67 -69 -67 -34 0 -47 -16 -20 -25 39 -12 121 52 121 95 0 22
-31 50 -57 50 -11 0 -37 -7 -56 -15 -46 -19 -73 -19 -81 0 -8 22 35 66 67 68
34 3 37 21 3 25 -16 2 -36 -8 -60 -28z"/>
<path d="M2846 1812 c-5 -8 166 -222 179 -223 26 -2 14 21 -65 116 -91 111
-104 123 -114 107z"/>
<path d="M2786 1660 c-35 -22 -58 -62 -50 -84 8 -21 33 -9 27 14 -6 21 29 60
54 60 9 0 25 -7 35 -17 17 -15 16 -18 -22 -53 -50 -46 -54 -87 -14 -119 34
-27 36 -26 73 5 22 18 31 35 31 56 0 26 2 29 15 18 12 -10 21 -10 41 -1 26 11
25 35 -1 25 -9 -4 -36 17 -73 55 -31 34 -64 61 -72 61 -8 0 -28 -9 -44 -20z
m110 -77 c29 -39 2 -113 -40 -113 -14 0 -46 36 -46 52 0 9 60 78 67 78 3 0 12
-8 19 -17z"/>
<path d="M2552 1552 c-39 -31 -71 -61 -71 -65 -1 -5 34 -50 76 -100 109 -131
101 -124 109 -104 4 11 -5 29 -25 52 -17 20 -31 39 -31 44 0 4 27 30 60 56 39
31 57 52 51 58 -6 6 -32 -9 -71 -43 l-62 -54 -19 25 c-54 67 -54 66 -18 96 74
62 92 80 83 86 -6 3 -42 -20 -82 -51z"/>
</g>
</svg>
